<svg width="116" height="129" viewBox="0 0 116 129" fill="none" xmlns="http://www.w3.org/2000/svg">
<g filter="url(#filter0_d_78_836)">
<path d="M4.53678 42.8051L35.3108 35.8946C35.3108 35.8946 50.8423 31.2362 66.0849 28.9841C75.5881 27.5801 94.0297 72.02 86.6671 83.0626C79.3045 94.1051 84.9443 107.013 84.9443 107.013L23.3962 120.834C24.1254 113.06 16.7232 112.508 21.6317 97.7854C26.5402 83.0625 18.5059 65.7663 4.53678 42.8051Z" fill="#FCFCFC"/>
<path fill-rule="evenodd" clip-rule="evenodd" d="M79.1893 54.4407C82.3409 53.0984 85.8906 49.9549 86.8774 47.8889C88.3223 44.8637 87.6024 40.2769 84.4638 38.8841C81.3253 37.4913 76.9565 39.82 75.5116 42.8453C74.9009 44.1237 74.2176 46.2182 73.8689 48.3157L71.2273 57.7011C72.1524 57.3175 73.1632 56.9315 74.1723 56.5461C76.0324 55.8357 77.8869 55.1275 79.1893 54.4407Z" fill="black"/>
<path fill-rule="evenodd" clip-rule="evenodd" d="M87.2508 47.8011C86.2279 49.8851 82.556 53.0627 79.3044 54.4176C79.1779 54.4829 79.0464 54.5483 78.9104 54.6139C76.7925 53.9049 76.1961 52.0266 75.6931 50.4425C75.2881 49.1669 74.9437 48.0821 73.9141 47.9526C74.292 45.9471 74.9628 43.9799 75.5638 42.7553C77.0594 39.7082 81.5631 37.3546 84.7903 38.7479C88.0176 40.1413 88.7464 44.754 87.2508 47.8011Z" fill="#F8EEE0"/>
<path d="M99.1535 31.7238C94.5683 37.9342 88.2222 41.1654 84.9792 38.9408C81.7362 36.7163 82.8242 29.8784 87.4095 23.668C91.9947 17.4576 106.736 2.55187 109.979 4.77642C113.222 7.00098 103.739 25.5134 99.1535 31.7238Z" fill="#113366"/>
<path d="M80.7803 35.0403C81.852 32.7647 84.742 31.9127 86.8941 33.238L90.2157 35.2836C92.4511 36.6602 92.7926 39.6982 90.9217 41.5644V41.5644C89.5194 42.9632 87.3104 43.2265 85.6348 42.1947L82.3131 40.1491C80.56 39.0695 79.9073 36.8941 80.7803 35.0403V35.0403Z" fill="#D9D9D9"/>
</g>
<g clip-path="url(#clip0_78_836)">
<path d="M49.4396 85.948C42.0737 90.2708 40.5228 83.9129 37.15 83.8936M61.7291 88.0024L60.2286 81.8511C60.1034 81.0786 59.8151 80.3416 59.383 79.6892C58.9509 79.0367 58.3849 78.4837 57.7226 78.067C62.5778 76.2932 67.3617 73.1222 65.2447 64.4436C64.703 62.2245 63.3288 60.2987 61.4065 59.0647C61.6575 56.9464 61.0828 54.8128 59.8018 53.1072C59.8018 53.1072 57.7905 53.0084 54.1607 56.9756C50.2768 56.877 46.4366 57.8137 43.0343 59.6897C37.9855 57.8395 36.2456 58.8533 36.2456 58.8533C35.8939 60.9572 36.3661 63.1158 37.5643 64.8805C36.4177 66.8758 36.0884 69.2376 36.6457 71.4704C38.7472 80.0854 44.4538 80.6974 49.596 80.0998C49.2049 80.7678 48.9588 81.5106 48.8737 82.2799C48.7886 83.0492 48.8665 83.8279 49.1022 84.5651L50.6027 90.7164" stroke="#353535" stroke-width="3" stroke-linecap="round" stroke-linejoin="round"/>
</g>
<defs>
<filter id="filter0_d_78_836" x="0.536865" y="4.55176" width="114.104" height="124.282" filterUnits="userSpaceOnUse" color-interpolation-filters="sRGB">
<feFlood flood-opacity="0" result="BackgroundImageFix"/>
<feColorMatrix in="SourceAlpha" type="matrix" values="0 0 0 0 0 0 0 0 0 0 0 0 0 0 0 0 0 0 127 0" result="hardAlpha"/>
<feOffset dy="4"/>
<feGaussianBlur stdDeviation="2"/>
<feComposite in2="hardAlpha" operator="out"/>
<feColorMatrix type="matrix" values="0 0 0 0 0 0 0 0 0 0 0 0 0 0 0 0 0 0 0.25 0"/>
<feBlend mode="normal" in2="BackgroundImageFix" result="effect1_dropShadow_78_836"/>
<feBlend mode="normal" in="SourceGraphic" in2="effect1_dropShadow_78_836" result="shape"/>
</filter>
<clipPath id="clip0_78_836">
<rect width="39.2661" height="39.2661" fill="white" transform="translate(27.7673 59.2373) rotate(-13.7086)"/>
</clipPath>
</defs>
</svg>
