<svg width="100" height="100" viewBox="0 0 100 100" fill="none" xmlns="http://www.w3.org/2000/svg">
<g clip-path="url(#clip0_558_874)">
<g filter="url(#filter0_d_558_874)">
<path d="M9.40738 33.841L32.7627 28.5965C32.7627 28.5965 44.5499 25.0611 56.118 23.3519C63.3302 22.2863 77.3261 56.0131 71.7385 64.3936C66.1508 72.7741 70.4309 82.5705 70.4309 82.5705L23.7203 93.0595C24.2737 87.1595 18.656 86.7408 22.3812 75.5672C26.1064 64.3935 20.009 51.2669 9.40738 33.841Z" fill="#FCFCFC"/>
<path fill-rule="evenodd" clip-rule="evenodd" d="M66.0778 42.6635C68.4663 41.6416 71.1518 39.2618 71.8993 37.6968C72.9959 35.4009 72.4496 31.9198 70.0676 30.8628C67.6856 29.8058 64.3701 31.5731 63.2735 33.869C62.8104 34.8386 62.2921 36.4265 62.0273 38.0172L60.0211 45.1453C60.7232 44.8542 61.4903 44.5613 62.2561 44.2688C63.6746 43.7271 65.0887 43.187 66.0778 42.6635Z" fill="black"/>
<path fill-rule="evenodd" clip-rule="evenodd" d="M72.1825 37.6321C71.4072 39.2116 68.6265 41.6191 66.1612 42.6496C66.0628 42.7004 65.9604 42.7514 65.8544 42.8026C64.2455 42.265 63.7927 40.8388 63.4109 39.6362C63.1036 38.6682 62.8422 37.8451 62.061 37.7466C62.3478 36.2247 62.8568 34.732 63.313 33.8027C64.448 31.4901 67.866 29.7038 70.3152 30.7613C72.7645 31.8188 73.3176 35.3195 72.1825 37.6321Z" fill="#F8EEE0"/>
<path d="M81.2156 25.4306C77.7357 30.1438 72.9195 32.596 70.4583 30.9078C67.9971 29.2195 68.8228 24.03 72.3027 19.3168C75.7825 14.6036 86.9702 3.29116 89.4314 4.97943C91.8926 6.66771 84.6954 20.7173 81.2156 25.4306Z" fill="#113366"/>
<path d="M67.271 27.9469C68.0843 26.2199 70.2777 25.5733 71.9109 26.5791L74.4318 28.1316C76.1283 29.1763 76.3875 31.482 74.9676 32.8982V32.8982C73.9033 33.9598 72.2269 34.1597 70.9552 33.3766L68.4343 31.8241C67.1038 31.0048 66.6085 29.3538 67.271 27.9469V27.9469Z" fill="#D9D9D9"/>
</g>
<g clip-path="url(#clip1_558_874)">
<path d="M43.4859 66.5825C37.8958 69.8632 36.7188 65.038 34.159 65.0234M52.8128 68.1416L51.6741 63.4732C51.579 62.887 51.3602 62.3277 51.0323 61.8325C50.7044 61.3373 50.2748 60.9177 49.7721 60.6014C53.4569 59.2552 57.0876 56.8486 55.4809 50.2622C55.0698 48.5781 54.0269 47.1165 52.568 46.18C52.7585 44.5723 52.3223 42.9531 51.3501 41.6587C51.3501 41.6587 49.8237 41.5837 47.0689 44.5945C44.1213 44.5196 41.2069 45.2306 38.6248 46.6543C34.7931 45.2501 33.4727 46.0196 33.4727 46.0196C33.2057 47.6163 33.5641 49.2544 34.4734 50.5938C33.6032 52.1081 33.3534 53.9005 33.7763 55.595C35.3712 62.1332 39.7021 62.5976 43.6047 62.1441C43.3078 62.6511 43.1211 63.2148 43.0565 63.7987C42.9919 64.3825 43.051 64.9735 43.2299 65.533L44.3687 70.2014" stroke="#353535" stroke-linecap="round" stroke-linejoin="round"/>
</g>
</g>
<defs>
<filter id="filter0_d_558_874" x="5.40723" y="4.80908" width="88.5264" height="96.2505" filterUnits="userSpaceOnUse" color-interpolation-filters="sRGB">
<feFlood flood-opacity="0" result="BackgroundImageFix"/>
<feColorMatrix in="SourceAlpha" type="matrix" values="0 0 0 0 0 0 0 0 0 0 0 0 0 0 0 0 0 0 127 0" result="hardAlpha"/>
<feOffset dy="4"/>
<feGaussianBlur stdDeviation="2"/>
<feComposite in2="hardAlpha" operator="out"/>
<feColorMatrix type="matrix" values="0 0 0 0 0 0 0 0 0 0 0 0 0 0 0 0 0 0 0.25 0"/>
<feBlend mode="normal" in2="BackgroundImageFix" result="effect1_dropShadow_558_874"/>
<feBlend mode="normal" in="SourceGraphic" in2="effect1_dropShadow_558_874" result="shape"/>
</filter>
<clipPath id="clip0_558_874">
<rect width="100" height="100" fill="white"/>
</clipPath>
<clipPath id="clip1_558_874">
<rect width="29.8002" height="29.8002" fill="white" transform="translate(27.0381 46.311) rotate(-13.7086)"/>
</clipPath>
</defs>
</svg>
